<svg width="14" height="16" viewBox="0 0 14 16" fill="none" xmlns="http://www.w3.org/2000/svg">
<path d="M1.25134 9C0.699058 9 0.251343 8.55228 0.251343 8C0.251343 7.44772 0.699058 7 1.25134 7V9ZM13.7071 7.29289C14.0976 7.68342 14.0976 8.31658 13.7071 8.70711L7.34312 15.0711C6.9526 15.4616 6.31943 15.4616 5.92891 15.0711C5.53838 14.6805 5.53838 14.0474 5.92891 13.6569L11.5858 8L5.92891 2.34315C5.53838 1.95262 5.53838 1.31946 5.92891 0.928932C6.31943 0.538408 6.9526 0.538408 7.34312 0.928932L13.7071 7.29289ZM1.25134 7L13 7V9L1.25134 9V7Z" fill="#424242"/>
</svg>
